<svg xmlns="http://www.w3.org/2000/svg" xmlns:xlink="http://www.w3.org/1999/xlink" version="1.1" x="0px" y="0px" viewBox="0 0 100 125" style="enable-background:new 0 0 100 100;" xml:space="preserve"><path d="M89.1,35.1H81c-0.2,1.4-0.6,2.8-1.4,4c-1.6,2.7-4.5,4.4-7.5,4.5l5.2,5.1l0.3,0.3v0.4l0,7.6c1.7,0.8,2.8,2.5,2.8,4.4  c0,1.3-0.5,2.6-1.4,3.5c-0.9,0.9-2.2,1.5-3.5,1.5c-0.8,0-1.7-0.2-2.3-0.6c-0.3-0.1-0.6-0.3-0.8-0.5c-0.1-0.1-0.2-0.2-0.3-0.3  c-0.3-0.2-0.4-0.5-0.6-0.7c-0.5-0.8-0.9-1.8-0.9-2.8c0-1.9,1.1-3.6,2.7-4.4l0-6.1l-4.1-4.1c-0.9,0.6-2,0.9-3.1,0.9l-4.4,0l4.4,4.3  l0.3,0.3v0.4l0,14.1c1.7,0.8,2.8,2.5,2.8,4.4c0,2.7-2.2,5-5,5c-1.3,0-2.6-0.5-3.5-1.4c-0.1-0.1-0.2-0.2-0.3-0.3  c-0.2-0.2-0.3-0.4-0.4-0.6l-0.1-0.1l-0.1-0.2c-0.2-0.3-0.3-0.6-0.4-0.9c-0.1-0.3-0.2-0.7-0.2-1c0-0.2,0-0.3,0-0.5  c0-1.9,1.1-3.6,2.7-4.4l0-12.7l-6.6-6.5l-3,0l0,8.3c1.7,0.8,2.8,2.5,2.8,4.4c0,2.7-2.2,5-5,5c-0.5,0-1-0.1-1.5-0.2  c-0.3-0.1-0.5-0.2-0.8-0.3c-0.4-0.2-0.8-0.4-1.1-0.7c-0.1-0.1-0.2-0.1-0.2-0.2c-0.9-0.9-1.4-2.2-1.4-3.5c0-1.9,1.1-3.6,2.7-4.4  l0-8.3l-3,0l-6.5,6.5l0,12.7c1.7,0.8,2.8,2.5,2.8,4.4c0,2.7-2.2,5-5,5c-1.2,0-2.4-0.4-3.3-1.3c-0.1-0.1-0.2-0.1-0.2-0.2  c-0.9-0.9-1.4-2.2-1.4-3.5c0-1.9,1.1-3.6,2.7-4.4l0-14.1v-0.4l0.3-0.3l4.4-4.4c-1.1-0.2-2.1-0.6-2.9-1.4c-0.7,0.1-1.3,0.1-2.1,0.1  c-0.6,0-1.3,0-1.9-0.1L27,51l0,6.1c1.7,0.8,2.8,2.5,2.8,4.4c0,2.7-2.2,5-5,5c-1.5,0-3-0.7-3.9-2c-0.2-0.2-0.3-0.4-0.4-0.6  c-0.4-0.7-0.6-1.5-0.6-2.4c0-1.9,1.1-3.6,2.7-4.4l0-7.6l0-0.4l0.3-0.3l4-4c-0.6-0.3-1.1-0.6-1.6-0.9c-1.8-1.3-3.4-2.9-4.5-4.9  c-0.7-1.2-1.2-2.6-1.5-4h-8.4c-2.7,0-4.8,2.2-4.8,4.8v41.4c0,2.7,2.2,4.8,4.8,4.8h1.9l-3.4,2.6c-0.6,0.5-0.9,1.4-0.4,2.1  c0.4,0.8,1.5,1.1,2.3,0.6l9.5-5.4h20.1v0.4c0,0.9,0.8,1.7,1.7,1.7h14.9c0.9,0,1.7-0.8,1.7-1.7v-0.3h20.1l9.5,5.4  c0.7,0.4,1.6,0.2,2.1-0.4c0.6-0.7,0.4-1.8-0.3-2.3l-3.4-2.6h1.9c2.7,0,4.8-2.2,4.8-4.8V39.9C93.9,37.3,91.7,35.1,89.1,35.1z"/><path d="M21.7,38.6c1,1.8,2.4,3.4,4.1,4.5c0.8,0.6,1.8,1.1,2.7,1.5l-5,5.1l0,8.2c-1.6,0.5-2.8,2-2.7,3.8c0,0.7,0.2,1.3,0.5,1.9  c0.1,0.2,0.2,0.3,0.3,0.5c0.7,1,1.8,1.6,3.1,1.6h0c2.2,0,4-1.8,3.9-4c0-1.8-1.2-3.2-2.8-3.7l0-7.2l5.3-5.3c0.8,0.1,1.5,0.2,2.3,0.2  h0c0.9,0,1.6,0,2.4-0.2c1,1,2.1,1.5,3.4,1.5c0,0,0,0,0,0h1.5l-6.1,6l0,14.8c-1.6,0.5-2.8,2-2.7,3.8c0,1.1,0.4,2.1,1.2,2.8  c0,0,0.1,0.1,0.2,0.1c0.7,0.6,1.6,1,2.6,1h0c2.2,0,4-1.8,4-4c0-1.8-1.2-3.2-2.8-3.7l0-13.8l7.1-7.1l4.4,0l0,10  c-1.6,0.5-2.7,2-2.7,3.8c0,1.1,0.5,2.1,1.2,2.8c0,0,0.1,0.1,0.1,0.1c0.3,0.2,0.5,0.4,0.9,0.6c0.2,0.1,0.4,0.2,0.6,0.3  c0.4,0.1,0.8,0.2,1.2,0.2c0,0,0,0,0,0c2.2,0,4-1.8,4-4c0-1.8-1.2-3.2-2.8-3.8l0-10h0.1l4.3,0l7.2,7l0,13.8c-1.6,0.5-2.8,2-2.7,3.8  c0,0.1,0,0.3,0,0.4c0,0.3,0.1,0.5,0.2,0.8c0.1,0.3,0.2,0.5,0.3,0.7c0.1,0.1,0.1,0.2,0.2,0.3c0.1,0.2,0.2,0.3,0.3,0.4  c0.1,0.1,0.1,0.1,0.2,0.2c0.7,0.7,1.7,1.2,2.8,1.2h0c2.2,0,3.9-1.8,3.9-4c0-1.8-1.2-3.2-2.8-3.8l0-14.8l-6.1-6l6.8,0  c1.3,0,2.4-0.5,3.2-1.3l5,5l0,7.2c-1.6,0.5-2.8,2-2.7,3.8c0,0.8,0.3,1.6,0.7,2.2c0.1,0.2,0.3,0.4,0.5,0.6c0.1,0.1,0.2,0.2,0.3,0.3  c0.2,0.2,0.4,0.3,0.6,0.4c0.6,0.3,1.2,0.5,1.9,0.5h0c2.2,0,4-1.8,4-4c0-1.8-1.2-3.2-2.8-3.7l0-8.2l-6.1-6.1c0-0.1,0-0.2,0.1-0.3  c0-0.2,0.1-0.4,0.1-0.6c0.1,0.1,0.3,0.1,0.5,0.1c0.1,0,0.1,0,0.2,0c0.1,0,0.2,0,0.3,0h0.1c2.9,0,5.5-1.6,7-4.1c0.6-1,1-2.2,1.2-3.5  c0-0.3,0.1-0.6,0.1-0.9c0.1-2.4-0.9-4.6-2.4-6.1c-0.2-0.2-0.4-0.3-0.6-0.5c-0.1-0.1-0.2-0.2-0.3-0.2c-0.2-0.2-0.4-0.3-0.7-0.4  c-0.2-0.1-0.4-0.3-0.7-0.4c-0.3-0.1-0.5-0.2-0.7-0.3c-0.9-0.3-1.8-0.5-2.8-0.5h0c-0.3,0-0.7,0.2-1.1,0.2c-0.2-1.8-0.6-3.6-1.2-5.3  c-0.2-0.6-0.5-1.1-0.7-1.6c-0.5-1.1-1.2-2.1-1.9-3c-0.4-0.5-0.7-0.9-1.1-1.4c-1-1.1-2.1-2.1-3.3-2.9c-0.5-0.3-1-0.7-1.5-1  c-0.5-0.3-1-0.6-1.6-0.8c-0.3-0.1-0.5-0.2-0.8-0.4c-0.5-0.2-1.1-0.4-1.7-0.6c-1.7-0.5-3.6-0.8-5.4-0.8h-0.1  c-7.1,0-13.4,4.2-16.8,10.1h-1.1c-7.5,0-13.5,5.9-13.5,13.5c0,1.1,0.1,2.2,0.4,3.2C20.6,36.4,21.1,37.5,21.7,38.6z"/><text x="0" y="115" fill="#000000" font-size="5px" font-weight="bold" font-family="'Helvetica Neue', Helvetica, Arial-Unicode, Arial, Sans-serif">Created by Round Icons</text><text x="0" y="120" fill="#000000" font-size="5px" font-weight="bold" font-family="'Helvetica Neue', Helvetica, Arial-Unicode, Arial, Sans-serif">from the Noun Project</text></svg>